<?xml version="1.0" encoding="UTF-8"?>
<svg id="Capa_1" data-name="Capa 1" xmlns="http://www.w3.org/2000/svg" viewBox="0 0 356.37 152.6">
  <defs>
    <style>
      .cls-1 {
        fill: #262626;
      }
    </style>
  </defs>
  <g>
    <path class="cls-1" d="M30.55,137.4l-8.95-31.71h2.39l8.38,30.23-1-.65h3.26l-1,.65,6.95-28.8h2.22l-7.38,30.28h-4.87ZM49.62,137.4l-8.04-30.28h2.26l7.65,28.8-1.09-.65h3.39l-1.09.65,7.73-30.23h2.35l-8.25,31.71h-4.91Z"/>
    <path class="cls-1" d="M68.86,137.4v-31.71h2.3v16.94l-.83,1.48c0-2,.31-3.76.93-5.28.62-1.52,1.57-2.71,2.85-3.56,1.27-.85,2.88-1.28,4.82-1.28h.09c2.84,0,4.98.89,6.43,2.67,1.45,1.78,2.17,4.21,2.17,7.28v13.47h-2.35v-13.99c0-2.2-.59-3.97-1.78-5.3-1.19-1.33-2.87-2-5.04-2s-4,.7-5.32,2.11c-1.32,1.41-1.98,3.24-1.98,5.5v13.68h-2.3Z"/>
    <path class="cls-1" d="M105.57,138.14c-1.94,0-3.62-.34-5.04-1.02-1.42-.68-2.58-1.59-3.48-2.74-.9-1.14-1.57-2.43-2.02-3.87-.45-1.43-.67-2.89-.67-4.37v-.43c0-1.51.22-2.95.67-4.34.45-1.39,1.13-2.66,2.04-3.8.91-1.14,2.06-2.04,3.43-2.69s2.98-.98,4.8-.98c2.32,0,4.26.51,5.84,1.54,1.58,1.03,2.77,2.37,3.58,4.02.81,1.65,1.22,3.39,1.22,5.21v1.56h-20.5v-1.91h18.98l-.69.87c0-1.77-.33-3.34-.98-4.73-.65-1.39-1.61-2.48-2.87-3.28s-2.79-1.2-4.58-1.2c-1.94,0-3.56.45-4.87,1.35-1.3.9-2.28,2.1-2.93,3.61-.65,1.51-.98,3.17-.98,5s.33,3.5.98,5.02c.65,1.52,1.64,2.75,2.98,3.69,1.33.94,3.03,1.41,5.08,1.41,2.2,0,3.97-.51,5.32-1.52,1.35-1.01,2.16-2.23,2.45-3.65h2.26c-.32,1.42-.93,2.68-1.82,3.78-.9,1.1-2.04,1.95-3.41,2.56-1.38.61-2.98.91-4.8.91Z"/>
    <path class="cls-1" d="M122.55,137.4v-22.8h1.82v9.64h-.35c0-3.3.74-5.76,2.22-7.38,1.48-1.62,3.87-2.43,7.17-2.43h.78v2.08h-1.22c-2.69,0-4.72.69-6.08,2.06-1.36,1.38-2.04,3.4-2.04,6.06v12.77h-2.3Z"/>
    <path class="cls-1" d="M148.79,138.14c-1.94,0-3.62-.34-5.04-1.02-1.42-.68-2.58-1.59-3.48-2.74-.9-1.14-1.57-2.43-2.02-3.87-.45-1.43-.67-2.89-.67-4.37v-.43c0-1.51.22-2.95.67-4.34.45-1.39,1.13-2.66,2.04-3.8.91-1.14,2.06-2.04,3.43-2.69s2.98-.98,4.8-.98c2.32,0,4.26.51,5.84,1.54,1.58,1.03,2.77,2.37,3.58,4.02.81,1.65,1.22,3.39,1.22,5.21v1.56h-20.5v-1.91h18.98l-.69.87c0-1.77-.33-3.34-.98-4.73-.65-1.39-1.61-2.48-2.87-3.28s-2.79-1.2-4.58-1.2c-1.94,0-3.56.45-4.87,1.35-1.3.9-2.28,2.1-2.93,3.61-.65,1.51-.98,3.17-.98,5s.33,3.5.98,5.02c.65,1.52,1.64,2.75,2.98,3.69,1.33.94,3.03,1.41,5.08,1.41,2.2,0,3.97-.51,5.32-1.52,1.35-1.01,2.16-2.23,2.45-3.65h2.26c-.32,1.42-.93,2.68-1.82,3.78-.9,1.1-2.04,1.95-3.41,2.56-1.38.61-2.98.91-4.8.91Z"/>
    <path class="cls-1" d="M176.98,137.4v-31.71h4.08l18.59,29.58h1.39l-.87.61v-30.19h2.3v31.71h-4.13l-18.59-29.58h-1.39l.87-.61v30.19h-2.26Z"/>
    <path class="cls-1" d="M221.54,138.14c-1.94,0-3.62-.34-5.04-1.02-1.42-.68-2.58-1.59-3.48-2.74-.9-1.14-1.57-2.43-2.02-3.87-.45-1.43-.67-2.89-.67-4.37v-.43c0-1.51.22-2.95.67-4.34.45-1.39,1.13-2.66,2.04-3.8.91-1.14,2.06-2.04,3.43-2.69s2.98-.98,4.8-.98c2.32,0,4.26.51,5.84,1.54,1.58,1.03,2.77,2.37,3.58,4.02.81,1.65,1.22,3.39,1.22,5.21v1.56h-20.5v-1.91h18.98l-.69.87c0-1.77-.33-3.34-.98-4.73-.65-1.39-1.61-2.48-2.87-3.28s-2.79-1.2-4.58-1.2c-1.94,0-3.56.45-4.87,1.35-1.3.9-2.28,2.1-2.93,3.61-.65,1.51-.98,3.17-.98,5s.33,3.5.98,5.02c.65,1.52,1.64,2.75,2.98,3.69,1.33.94,3.03,1.41,5.08,1.41,2.2,0,3.97-.51,5.32-1.52,1.35-1.01,2.16-2.23,2.45-3.65h2.26c-.32,1.42-.93,2.68-1.82,3.78-.9,1.1-2.04,1.95-3.41,2.56-1.38.61-2.98.91-4.8.91Z"/>
    <path class="cls-1" d="M235.57,137.4l8.73-12.03.17.91-8.3-11.68h2.56l6.6,9.34h.52l6.3-9.34h2.43l-7.69,11.25-.22-.87,9.25,12.42h-2.56l-7.51-10.16h-.56l-7.3,10.16h-2.43Z"/>
    <path class="cls-1" d="M257.73,116.46v-1.87h15.2v1.87h-15.2ZM269.15,137.61c-1.42,0-2.66-.21-3.74-.63-1.07-.42-1.9-1.14-2.48-2.15-.58-1.01-.87-2.37-.87-4.08v-23.59h2.26v23.98c0,1.39.38,2.47,1.15,3.24.77.77,1.83,1.15,3.19,1.15h4.26v2.08h-3.78Z"/>
    <path class="cls-1" d="M284.44,129.32v-8.04h2.04c2.32,0,4.1-.68,5.34-2.04,1.25-1.36,1.87-3.07,1.87-5.12,0-1.42-.29-2.67-.87-3.76-.58-1.09-1.4-1.92-2.45-2.52-1.06-.59-2.3-.89-3.71-.89s-2.73.33-3.84.98c-1.11.65-1.98,1.55-2.61,2.69-.62,1.14-.93,2.5-.93,4.06h-2.17c0-1.85.38-3.52,1.15-5,.77-1.48,1.87-2.65,3.3-3.52,1.43-.87,3.13-1.3,5.1-1.3s3.56.41,4.95,1.24c1.39.83,2.46,1.93,3.21,3.3.75,1.38,1.13,2.87,1.13,4.5v.48c0,1.56-.36,3.03-1.09,4.41-.72,1.38-1.82,2.48-3.28,3.3-1.46.83-3.28,1.24-5.45,1.24l.65-1.26-.04,7.25h-2.3ZM284.05,137.4v-3.34h3.08v3.34h-3.08Z"/>
  </g>
  <g>
    <path class="cls-1" d="M22.15,90.3v-33.12h-11.5v-11.5h11.5V12.79h28.29c25.3,0,40.25,16.1,40.25,38.18s-14.95,39.33-39.91,39.33h-28.64ZM50.33,77.65c16.33,0,24.84-11.85,24.84-26.68s-8.62-25.99-25.19-25.99h-12.54v20.7h17.25v11.5h-17.25v20.47h12.88Z"/>
    <path class="cls-1" d="M104.15,90.3V30.84h14.26v12.19c3.68-9.78,9.55-13.46,15.87-13.46,1.27,0,3.34.12,4.83.69v12.77h-6.44c-8.05,0-13.57,5.41-13.57,16.56v30.71h-14.95Z"/>
    <path class="cls-1" d="M147.97,21.53v-12.88h15.64v12.88h-15.64ZM148.32,90.3V30.84h14.95v59.46h-14.95Z"/>
    <path class="cls-1" d="M182.36,90.3v-48.07h-8.63v-11.39h8.63v-4.37c0-8.97,1.84-20.24,21.28-20.24,1.38,0,5.18.12,8.4.92v10.12h-6.56c-6.79,0-8.17,3.91-8.17,8.97v4.6h14.49v11.39h-14.49v48.07h-14.95Z"/>
    <path class="cls-1" d="M252.28,90.42c-2.99,1.04-7.02,1.26-7.82,1.26-19.55,0-21.51-10.24-21.51-25.07v-24.15h-8.51v-11.38h8.51v-15.18h14.95v15.18h14.38v11.38h-14.38v24.15c0,8.74,1.38,12.31,8.28,12.31h6.1v11.5Z"/>
    <path class="cls-1" d="M263.44,90.3V7.5h14.95v82.8h-14.95Z"/>
    <path class="cls-1" d="M300.01,114.68l10.58-26.8-22.2-57.04h15.87l14.03,41.98,14.49-41.98h15.64l-33.81,83.84h-14.61Z"/>
  </g>
</svg>